# xmcd
#
# Track frame offsets:
#	182
#	31800
#	55797
#	69560
#	86287
#	96995
#	111897
#	130732
#	142132
#	162307
#	173442
#	207632
#	222237
#	233217
#
# Disc length: 3288 seconds
#
# Revision: 0
# Processed by: cddbd v1.4PL0 Copyright (c) Steve Scherf et al.
# Submitted via: dBpowerAMP V4.0
#
DISCID=c40cd60e
DTITLE=James Brown - I GRANDI DELLA MUSICA
DYEAR=1900
DGENRE=
TTITLE0=Papa's Got a Brand New Bag(parts 1-3)
TTITLE1=Get Up I Fell Being Like a Sex Machine
TTITLE2=Say It Loud, I'm Black And I'm Proud
TTITLE3=Night Train
TTITLE4=Out Of Sight
TTITLE5=It's A Man's Man's Man's World
TTITLE6=Get On The Good Foot
TTITLE7=I Got You
TTITLE8=Super Bad(parts 1&2)
TTITLE9=Prisoner Of Love
TTITLE10=Cold Sweat
TTITLE11=Give It Up Or Turn It Loose
TTITLE12=Bewildered
TTITLE13=Think
EXTD=
EXTT0=
EXTT1=
EXTT2=
EXTT3=
EXTT4=
EXTT5=
EXTT6=
EXTT7=
EXTT8=
EXTT9=
EXTT10=
EXTT11=
EXTT12=
EXTT13=
PLAYORDER=
